<svg xmlns="http://www.w3.org/2000/svg" xmlns:xlink="http://www.w3.org/1999/xlink" width="500" zoomAndPan="magnify" viewBox="0 0 375 374.999991" height="500" preserveAspectRatio="xMidYMid meet" version="1.0"><defs><g/><clipPath id="f5df678fb7"><path d="M 17.671875 68.75 L 363.414062 68.75 L 363.414062 287.75 L 17.671875 287.75 Z M 17.671875 68.75 " clip-rule="nonzero"/></clipPath><clipPath id="ccd04ce9e5"><path d="M 17.667969 70.003906 L 363.589844 70.003906 L 363.589844 288.992188 L 17.667969 288.992188 Z M 17.667969 70.003906 " clip-rule="nonzero"/></clipPath><clipPath id="5f93ea7773"><path d="M 249.300781 176.699219 L 349.050781 176.699219 L 349.050781 276.449219 L 249.300781 276.449219 Z M 249.300781 176.699219 " clip-rule="nonzero"/></clipPath></defs><g clip-path="url(#f5df678fb7)"><path stroke-linecap="butt" transform="matrix(0.749644, 0, 0, 0.75008, 17.673819, 68.74999)" fill="none" stroke-linejoin="miter" d="M -0.00259368 0.0000134847 L 461.205743 0.0000134847 L 461.205743 291.96878 L -0.00259368 291.96878 L -0.00259368 0.0000134847 " stroke="#000000" stroke-width="6" stroke-opacity="1" stroke-miterlimit="4"/></g><g clip-path="url(#ccd04ce9e5)"><path fill="#000000" d="M 17.667969 70.003906 L 363.347656 70.003906 L 363.347656 289.054688 L 17.667969 289.054688 Z M 17.667969 70.003906 " fill-opacity="1" fill-rule="nonzero"/></g><g clip-path="url(#5f93ea7773)"><path fill="#ffffff" d="M 299.195312 176.699219 C 297.5625 176.699219 295.933594 176.78125 294.308594 176.941406 C 292.683594 177.101562 291.066406 177.34375 289.464844 177.660156 C 287.863281 177.980469 286.28125 178.378906 284.71875 178.851562 C 283.15625 179.328125 281.617188 179.878906 280.109375 180.503906 C 278.601562 181.128906 277.125 181.828125 275.6875 182.597656 C 274.246094 183.367188 272.847656 184.207031 271.488281 185.117188 C 270.128906 186.023438 268.820312 186.996094 267.558594 188.03125 C 266.292969 189.070312 265.085938 190.164062 263.929688 191.320312 C 262.777344 192.476562 261.679688 193.6875 260.644531 194.949219 C 259.609375 196.210938 258.636719 197.523438 257.730469 198.882812 C 256.824219 200.242188 255.984375 201.640625 255.214844 203.082031 C 254.445312 204.523438 253.75 205.996094 253.125 207.507812 C 252.5 209.015625 251.949219 210.550781 251.476562 212.117188 C 251.003906 213.679688 250.605469 215.261719 250.289062 216.863281 C 249.96875 218.46875 249.730469 220.082031 249.570312 221.707031 C 249.414062 223.332031 249.332031 224.960938 249.332031 226.597656 C 249.332031 228.230469 249.414062 229.859375 249.574219 231.484375 C 249.734375 233.109375 249.976562 234.722656 250.292969 236.328125 C 250.613281 237.929688 251.011719 239.511719 251.484375 241.074219 C 251.960938 242.636719 252.511719 244.175781 253.136719 245.683594 C 253.761719 247.191406 254.460938 248.667969 255.230469 250.105469 C 256 251.546875 256.839844 252.945312 257.746094 254.304688 C 258.65625 255.664062 259.628906 256.972656 260.664062 258.234375 C 261.703125 259.5 262.796875 260.707031 263.953125 261.863281 C 265.109375 263.015625 266.316406 264.113281 267.582031 265.148438 C 268.84375 266.183594 270.15625 267.15625 271.511719 268.0625 C 272.871094 268.96875 274.273438 269.808594 275.710938 270.578125 C 277.152344 271.347656 278.628906 272.046875 280.136719 272.667969 C 281.648438 273.292969 283.183594 273.84375 284.746094 274.316406 C 286.3125 274.792969 287.894531 275.1875 289.496094 275.503906 C 291.097656 275.824219 292.710938 276.0625 294.339844 276.222656 C 295.964844 276.382812 297.59375 276.460938 299.226562 276.460938 C 300.859375 276.460938 302.492188 276.378906 304.117188 276.21875 C 305.742188 276.058594 307.355469 275.820312 308.957031 275.5 C 310.558594 275.179688 312.144531 274.785156 313.707031 274.308594 C 315.269531 273.835938 316.804688 273.285156 318.316406 272.660156 C 319.824219 272.035156 321.296875 271.335938 322.738281 270.566406 C 324.179688 269.796875 325.578125 268.957031 326.9375 268.046875 C 328.292969 267.140625 329.605469 266.167969 330.867188 265.132812 C 332.128906 264.09375 333.339844 263 334.492188 261.84375 C 335.648438 260.6875 336.742188 259.476562 337.78125 258.214844 C 338.816406 256.953125 339.789062 255.640625 340.695312 254.28125 C 341.601562 252.925781 342.441406 251.523438 343.210938 250.082031 C 343.980469 248.644531 344.675781 247.167969 345.300781 245.65625 C 345.925781 244.148438 346.476562 242.613281 346.949219 241.050781 C 347.425781 239.484375 347.820312 237.902344 348.136719 236.300781 C 348.457031 234.699219 348.695312 233.085938 348.855469 231.457031 C 349.015625 229.832031 349.09375 228.203125 349.09375 226.570312 C 349.089844 224.9375 349.007812 223.308594 348.84375 221.683594 C 348.683594 220.058594 348.441406 218.445312 348.117188 216.84375 C 347.796875 215.242188 347.398438 213.660156 346.921875 212.097656 C 346.445312 210.539062 345.894531 209.003906 345.269531 207.496094 C 344.640625 205.988281 343.941406 204.511719 343.171875 203.074219 C 342.402344 201.632812 341.5625 200.234375 340.652344 198.878906 C 339.746094 197.523438 338.773438 196.210938 337.734375 194.949219 C 336.699219 193.6875 335.601562 192.480469 334.449219 191.328125 C 333.292969 190.171875 332.085938 189.078125 330.820312 188.042969 C 329.558594 187.003906 328.25 186.035156 326.890625 185.125 C 325.535156 184.21875 324.136719 183.378906 322.695312 182.609375 C 321.257812 181.839844 319.78125 181.140625 318.273438 180.515625 C 316.765625 179.890625 315.230469 179.339844 313.667969 178.863281 C 312.105469 178.386719 310.523438 177.992188 308.921875 177.671875 C 307.320312 177.351562 305.707031 177.109375 304.082031 176.945312 C 302.457031 176.785156 300.828125 176.703125 299.195312 176.699219 Z M 312.972656 268.65625 C 310.808594 269.097656 310.007812 267.765625 310.007812 266.617188 C 310.007812 265.15625 310.074219 260.507812 310.074219 254.714844 C 310.074219 250.699219 308.707031 248.070312 307.144531 246.730469 C 316.757812 245.648438 326.878906 241.992188 326.878906 225.375 C 326.910156 223.226562 326.542969 221.148438 325.773438 219.140625 C 325.003906 217.132812 323.886719 215.339844 322.425781 213.765625 C 322.867188 212.679688 324.390625 208.253906 322.003906 202.285156 C 322.003906 202.285156 318.378906 201.105469 310.105469 206.707031 C 306.570312 205.753906 302.96875 205.277344 299.304688 205.277344 C 295.636719 205.277344 292.035156 205.753906 288.5 206.707031 C 280.226562 201.171875 276.59375 202.285156 276.59375 202.285156 C 274.242188 208.230469 275.738281 212.65625 276.183594 213.765625 C 274.730469 215.347656 273.621094 217.140625 272.859375 219.144531 C 272.09375 221.152344 271.730469 223.230469 271.761719 225.375 C 271.761719 241.921875 281.816406 245.648438 291.425781 246.730469 C 290.1875 247.8125 289.039062 249.6875 288.660156 252.523438 C 286.175781 253.636719 279.96875 255.476562 276.089844 248.957031 C 275.261719 247.648438 272.839844 244.46875 269.4375 244.503906 C 265.8125 244.566406 267.976562 246.570312 269.472656 247.375 C 271.316406 248.425781 273.414062 252.242188 273.925781 253.480469 C 274.78125 255.933594 277.582031 260.574219 288.433594 258.570312 C 288.433594 262.199219 288.5 265.609375 288.5 266.605469 C 288.5 267.753906 287.707031 269.023438 285.535156 268.644531 C 284.734375 268.375 283.941406 268.085938 283.15625 267.769531 C 282.375 267.453125 281.597656 267.117188 280.835938 266.753906 C 280.070312 266.394531 279.316406 266.011719 278.574219 265.605469 C 277.832031 265.203125 277.101562 264.777344 276.386719 264.328125 C 275.667969 263.878906 274.964844 263.414062 274.273438 262.921875 C 273.585938 262.433594 272.910156 261.925781 272.25 261.398438 C 271.589844 260.867188 270.949219 260.320312 270.320312 259.753906 C 269.691406 259.1875 269.082031 258.601562 268.488281 258 C 267.894531 257.398438 267.320312 256.78125 266.761719 256.144531 C 266.207031 255.507812 265.667969 254.855469 265.148438 254.1875 C 264.632812 253.519531 264.132812 252.835938 263.65625 252.140625 C 263.175781 251.445312 262.71875 250.734375 262.28125 250.007812 C 261.84375 249.285156 261.429688 248.550781 261.035156 247.800781 C 260.640625 247.054688 260.269531 246.292969 259.921875 245.523438 C 259.574219 244.753906 259.246094 243.972656 258.945312 243.183594 C 258.640625 242.394531 258.359375 241.597656 258.105469 240.792969 C 257.847656 239.988281 257.617188 239.175781 257.40625 238.355469 C 257.199219 237.535156 257.015625 236.710938 256.855469 235.882812 C 256.695312 235.050781 256.558594 234.21875 256.445312 233.378906 C 256.335938 232.542969 256.25 231.699219 256.1875 230.859375 C 256.125 230.015625 256.089844 229.171875 256.074219 228.324219 C 256.0625 227.480469 256.074219 226.636719 256.113281 225.789062 C 256.152344 224.945312 256.210938 224.101562 256.300781 223.261719 C 256.386719 222.421875 256.496094 221.582031 256.632812 220.75 C 256.769531 219.914062 256.929688 219.085938 257.117188 218.261719 C 257.300781 217.433594 257.507812 216.617188 257.742188 215.804688 C 257.972656 214.992188 258.230469 214.183594 258.511719 213.386719 C 258.792969 212.589844 259.09375 211.800781 259.421875 211.023438 C 259.746094 210.242188 260.097656 209.472656 260.46875 208.714844 C 260.839844 207.953125 261.234375 207.207031 261.648438 206.46875 C 262.066406 205.734375 262.5 205.011719 262.960938 204.300781 C 263.417969 203.589844 263.898438 202.890625 264.394531 202.210938 C 264.894531 201.527344 265.414062 200.859375 265.953125 200.207031 C 266.488281 199.554688 267.046875 198.921875 267.621094 198.300781 C 268.199219 197.683594 268.789062 197.082031 269.402344 196.496094 C 270.011719 195.910156 270.640625 195.34375 271.285156 194.796875 C 271.929688 194.25 272.585938 193.722656 273.261719 193.214844 C 273.9375 192.703125 274.628906 192.214844 275.332031 191.746094 C 276.035156 191.277344 276.75 190.832031 277.480469 190.40625 C 278.210938 189.980469 278.953125 189.574219 279.707031 189.191406 C 280.460938 188.808594 281.226562 188.449219 282 188.113281 C 282.777344 187.773438 283.558594 187.460938 284.355469 187.167969 C 285.148438 186.875 285.949219 186.605469 286.757812 186.363281 C 287.566406 186.117188 288.382812 185.898438 289.207031 185.699219 C 290.027344 185.503906 290.855469 185.332031 291.6875 185.183594 C 292.519531 185.035156 293.355469 184.910156 294.195312 184.8125 C 295.035156 184.714844 295.875 184.640625 296.71875 184.589844 C 297.5625 184.539062 298.410156 184.515625 299.253906 184.515625 C 300.097656 184.515625 300.945312 184.539062 301.789062 184.589844 C 302.632812 184.640625 303.472656 184.714844 304.3125 184.8125 C 305.152344 184.910156 305.988281 185.035156 306.820312 185.183594 C 307.652344 185.332031 308.480469 185.503906 309.304688 185.699219 C 310.125 185.898438 310.941406 186.117188 311.75 186.363281 C 312.558594 186.605469 313.359375 186.875 314.15625 187.167969 C 314.949219 187.460938 315.730469 187.773438 316.507812 188.113281 C 317.28125 188.449219 318.046875 188.808594 318.800781 189.191406 C 319.554688 189.574219 320.296875 189.980469 321.027344 190.40625 C 321.757812 190.832031 322.472656 191.277344 323.175781 191.746094 C 323.882812 192.214844 324.570312 192.703125 325.246094 193.214844 C 325.921875 193.722656 326.582031 194.25 327.222656 194.796875 C 327.867188 195.34375 328.496094 195.910156 329.105469 196.496094 C 329.71875 197.082031 330.3125 197.683594 330.886719 198.300781 C 331.460938 198.921875 332.019531 199.554688 332.558594 200.207031 C 333.09375 200.859375 333.613281 201.527344 334.113281 202.210938 C 334.613281 202.890625 335.089844 203.589844 335.546875 204.300781 C 336.007812 205.011719 336.441406 205.734375 336.859375 206.46875 C 337.273438 207.207031 337.667969 207.953125 338.039062 208.714844 C 338.410156 209.472656 338.761719 210.242188 339.085938 211.023438 C 339.414062 211.800781 339.71875 212.589844 339.996094 213.386719 C 340.277344 214.183594 340.535156 214.992188 340.765625 215.804688 C 341 216.617188 341.207031 217.433594 341.394531 218.261719 C 341.578125 219.085938 341.738281 219.914062 341.875 220.75 C 342.011719 221.582031 342.121094 222.421875 342.207031 223.261719 C 342.296875 224.101562 342.359375 224.945312 342.394531 225.789062 C 342.433594 226.636719 342.445312 227.480469 342.433594 228.324219 C 342.421875 229.171875 342.382812 230.015625 342.320312 230.859375 C 342.257812 231.699219 342.171875 232.542969 342.0625 233.378906 C 341.949219 234.21875 341.816406 235.050781 341.65625 235.882812 C 341.496094 236.710938 341.308594 237.535156 341.101562 238.355469 C 340.890625 239.175781 340.660156 239.988281 340.402344 240.792969 C 340.148438 241.597656 339.867188 242.394531 339.5625 243.183594 C 339.261719 243.972656 338.933594 244.753906 338.585938 245.523438 C 338.238281 246.292969 337.867188 247.054688 337.472656 247.800781 C 337.078125 248.550781 336.664062 249.285156 336.226562 250.007812 C 335.789062 250.734375 335.332031 251.445312 334.855469 252.140625 C 334.375 252.835938 333.875 253.519531 333.359375 254.1875 C 332.839844 254.855469 332.300781 255.507812 331.746094 256.144531 C 331.1875 256.78125 330.613281 257.398438 330.019531 258 C 329.425781 258.601562 328.816406 259.1875 328.1875 259.753906 C 327.5625 260.320312 326.917969 260.867188 326.257812 261.398438 C 325.597656 261.925781 324.921875 262.433594 324.234375 262.921875 C 323.542969 263.414062 322.839844 263.878906 322.125 264.328125 C 321.40625 264.777344 320.675781 265.203125 319.933594 265.605469 C 319.191406 266.011719 318.4375 266.394531 317.675781 266.753906 C 316.910156 267.117188 316.136719 267.453125 315.351562 267.769531 C 314.566406 268.085938 313.773438 268.375 312.972656 268.644531 Z M 312.972656 268.65625 " fill-opacity="1" fill-rule="evenodd"/></g><g fill="#ffffff" fill-opacity="1"><g transform="translate(40.775361, 159.546044)"><g><path d="M 8.828125 0 L 25.429688 0 L 25.429688 -44.34375 L 43.292969 -18.179688 L 54.855469 -18.179688 L 72.71875 -44.242188 L 72.71875 0 L 89.320312 0 L 89.320312 -73.558594 L 75.242188 -73.558594 L 49.179688 -35.414062 L 23.011719 -73.558594 L 8.828125 -73.558594 Z M 8.828125 0 "/></g></g></g><g fill="#ffffff" fill-opacity="1"><g transform="translate(146.885068, 159.546044)"><g><path d="M 8.828125 0 L 25.535156 0 L 25.535156 -73.558594 L 8.828125 -73.558594 Z M 8.828125 0 "/></g></g></g><g fill="#ffffff" fill-opacity="1"><g transform="translate(189.226055, 159.546044)"><g><path d="M 26.480469 0 L 43.191406 0 L 43.191406 -57.902344 L 66.519531 -57.902344 L 66.519531 -73.558594 L 3.152344 -73.558594 L 3.152344 -57.902344 L 26.480469 -57.902344 Z M 26.480469 0 "/></g></g></g><g fill="#ffffff" fill-opacity="1"><g transform="translate(266.865716, 159.546044)"><g><path d="M 34.46875 1.472656 C 51.910156 1.472656 62.628906 -6.832031 62.628906 -20.703125 C 62.628906 -32.367188 54.960938 -39.300781 36.675781 -43.609375 C 25.429688 -46.238281 21.542969 -49.074219 21.542969 -53.59375 C 21.542969 -58.425781 25.851562 -61.371094 32.890625 -61.371094 C 40.5625 -61.371094 45.1875 -57.375 45.1875 -50.753906 L 61.265625 -50.753906 C 61.265625 -65.574219 50.125 -75.03125 32.679688 -75.03125 C 15.761719 -75.03125 5.253906 -66.730469 5.253906 -53.277344 C 5.253906 -41.296875 13.347656 -34.152344 30.578125 -30.472656 C 40.984375 -28.269531 45.710938 -25.21875 45.710938 -20.070312 C 45.710938 -15.132812 41.296875 -12.292969 34.363281 -12.292969 C 26.269531 -12.292969 21.015625 -16.394531 21.015625 -23.433594 L 4.625 -23.433594 C 4.625 -8.195312 15.972656 1.472656 34.46875 1.472656 Z M 34.46875 1.472656 "/></g></g></g><g fill="#ffffff" fill-opacity="1"><g transform="translate(41.307588, 261.036639)"><g><path d="M 42.875 1.578125 C 68.199219 1.578125 84.066406 -16.8125 81.753906 -42.664062 L 39.195312 -42.664062 L 39.195312 -27.742188 L 59.476562 -27.742188 C 57.375 -21.542969 51.492188 -17.339844 43.085938 -17.339844 C 31.316406 -17.339844 24.484375 -25.640625 24.484375 -36.78125 C 24.484375 -48.339844 31.945312 -56.21875 42.875 -56.21875 C 49.390625 -56.21875 54.960938 -53.382812 57.796875 -48.757812 L 80.390625 -48.757812 C 76.082031 -64.835938 61.160156 -75.136719 42.558594 -75.136719 C 19.441406 -75.136719 3.574219 -59.371094 3.574219 -36.78125 C 3.574219 -14.082031 19.546875 1.578125 42.875 1.578125 Z M 42.875 1.578125 "/></g></g></g><g fill="#ffffff" fill-opacity="1"><g transform="translate(126.612706, 261.036639)"><g><path d="M 7.777344 0 L 29.003906 0 L 29.003906 -73.558594 L 7.777344 -73.558594 Z M 7.777344 0 "/></g></g></g><g fill="#ffffff" fill-opacity="1"><g transform="translate(163.382146, 261.036639)"><g><path d="M 25.324219 0 L 46.449219 0 L 46.449219 -53.910156 L 68.832031 -53.910156 L 68.832031 -73.558594 L 2.941406 -73.558594 L 2.941406 -53.910156 L 25.324219 -53.910156 Z M 25.324219 0 "/></g></g></g></svg>